<mxfile host="Electron" modified="2024-02-07T17:42:35.384Z" agent="Mozilla/5.0 (Macintosh; Intel Mac OS X 10_15_7) AppleWebKit/537.36 (KHTML, like Gecko) draw.io/23.0.2 Chrome/120.0.6099.109 Electron/28.1.0 Safari/537.36" etag="yED3HiHo1Ndc34FjvUSN" version="23.0.2" type="device">
  <diagram name="Page-1" id="2YBvvXClWsGukQMizWep">
    <mxGraphModel dx="1283" dy="965" grid="1" gridSize="10" guides="1" tooltips="1" connect="1" arrows="1" fold="1" page="1" pageScale="1" pageWidth="850" pageHeight="1100" math="0" shadow="0">
      <root>
        <mxCell id="0" />
        <mxCell id="1" parent="0" />
        <mxCell id="5B4_dlVFcErtrF7RwUxo-1" value="Actor" style="shape=umlActor;verticalLabelPosition=bottom;verticalAlign=top;html=1;outlineConnect=0;" parent="1" vertex="1">
          <mxGeometry x="20" y="55" width="30" height="60" as="geometry" />
        </mxCell>
        <mxCell id="5B4_dlVFcErtrF7RwUxo-2" value="main" style="shape=umlLifeline;perimeter=lifelinePerimeter;whiteSpace=wrap;html=1;container=0;dropTarget=0;collapsible=0;recursiveResize=0;outlineConnect=0;portConstraint=eastwest;newEdgeStyle={&quot;edgeStyle&quot;:&quot;elbowEdgeStyle&quot;,&quot;elbow&quot;:&quot;vertical&quot;,&quot;curved&quot;:0,&quot;rounded&quot;:0};" parent="1" vertex="1">
          <mxGeometry x="150" y="85" width="100" height="270" as="geometry" />
        </mxCell>
        <mxCell id="5B4_dlVFcErtrF7RwUxo-13" value="" style="html=1;points=[];perimeter=orthogonalPerimeter;outlineConnect=0;targetShapes=umlLifeline;portConstraint=eastwest;newEdgeStyle={&quot;edgeStyle&quot;:&quot;elbowEdgeStyle&quot;,&quot;elbow&quot;:&quot;vertical&quot;,&quot;curved&quot;:0,&quot;rounded&quot;:0};" parent="5B4_dlVFcErtrF7RwUxo-2" vertex="1">
          <mxGeometry x="45" y="70" width="10" height="200" as="geometry" />
        </mxCell>
        <mxCell id="5B4_dlVFcErtrF7RwUxo-6" value="MVVM" style="shape=umlLifeline;perimeter=lifelinePerimeter;whiteSpace=wrap;html=1;container=0;dropTarget=0;collapsible=0;recursiveResize=0;outlineConnect=0;portConstraint=eastwest;newEdgeStyle={&quot;edgeStyle&quot;:&quot;elbowEdgeStyle&quot;,&quot;elbow&quot;:&quot;vertical&quot;,&quot;curved&quot;:0,&quot;rounded&quot;:0};" parent="1" vertex="1">
          <mxGeometry x="570" y="85" width="100" height="270" as="geometry" />
        </mxCell>
        <mxCell id="5B4_dlVFcErtrF7RwUxo-17" value="" style="html=1;points=[];perimeter=orthogonalPerimeter;outlineConnect=0;targetShapes=umlLifeline;portConstraint=eastwest;newEdgeStyle={&quot;edgeStyle&quot;:&quot;elbowEdgeStyle&quot;,&quot;elbow&quot;:&quot;vertical&quot;,&quot;curved&quot;:0,&quot;rounded&quot;:0};" parent="5B4_dlVFcErtrF7RwUxo-6" vertex="1">
          <mxGeometry x="45" y="95" width="10" height="175" as="geometry" />
        </mxCell>
        <mxCell id="5B4_dlVFcErtrF7RwUxo-7" value="Frontend" style="shape=umlLifeline;perimeter=lifelinePerimeter;whiteSpace=wrap;html=1;container=0;dropTarget=0;collapsible=0;recursiveResize=0;outlineConnect=0;portConstraint=eastwest;newEdgeStyle={&quot;edgeStyle&quot;:&quot;elbowEdgeStyle&quot;,&quot;elbow&quot;:&quot;vertical&quot;,&quot;curved&quot;:0,&quot;rounded&quot;:0};" parent="1" vertex="1">
          <mxGeometry x="360" y="85" width="100" height="270" as="geometry" />
        </mxCell>
        <mxCell id="5B4_dlVFcErtrF7RwUxo-20" value="" style="html=1;points=[];perimeter=orthogonalPerimeter;outlineConnect=0;targetShapes=umlLifeline;portConstraint=eastwest;newEdgeStyle={&quot;edgeStyle&quot;:&quot;elbowEdgeStyle&quot;,&quot;elbow&quot;:&quot;vertical&quot;,&quot;curved&quot;:0,&quot;rounded&quot;:0};" parent="5B4_dlVFcErtrF7RwUxo-7" vertex="1">
          <mxGeometry x="45" y="150" width="10" height="120" as="geometry" />
        </mxCell>
        <mxCell id="5B4_dlVFcErtrF7RwUxo-8" value="Backend" style="shape=umlLifeline;perimeter=lifelinePerimeter;whiteSpace=wrap;html=1;container=0;dropTarget=0;collapsible=0;recursiveResize=0;outlineConnect=0;portConstraint=eastwest;newEdgeStyle={&quot;edgeStyle&quot;:&quot;elbowEdgeStyle&quot;,&quot;elbow&quot;:&quot;vertical&quot;,&quot;curved&quot;:0,&quot;rounded&quot;:0};" parent="1" vertex="1">
          <mxGeometry x="780" y="85" width="100" height="270" as="geometry" />
        </mxCell>
        <mxCell id="5B4_dlVFcErtrF7RwUxo-23" value="" style="html=1;points=[];perimeter=orthogonalPerimeter;outlineConnect=0;targetShapes=umlLifeline;portConstraint=eastwest;newEdgeStyle={&quot;edgeStyle&quot;:&quot;elbowEdgeStyle&quot;,&quot;elbow&quot;:&quot;vertical&quot;,&quot;curved&quot;:0,&quot;rounded&quot;:0};" parent="5B4_dlVFcErtrF7RwUxo-8" vertex="1">
          <mxGeometry x="45" y="180" width="10" height="90" as="geometry" />
        </mxCell>
        <mxCell id="5B4_dlVFcErtrF7RwUxo-9" value="" style="endArrow=classic;html=1;rounded=0;" parent="1" target="5B4_dlVFcErtrF7RwUxo-2" edge="1">
          <mxGeometry width="50" height="50" relative="1" as="geometry">
            <mxPoint x="40" y="155" as="sourcePoint" />
            <mxPoint x="90" y="105" as="targetPoint" />
          </mxGeometry>
        </mxCell>
        <mxCell id="5B4_dlVFcErtrF7RwUxo-12" value="start programm" style="edgeLabel;html=1;align=center;verticalAlign=middle;resizable=0;points=[];" parent="5B4_dlVFcErtrF7RwUxo-9" vertex="1" connectable="0">
          <mxGeometry x="0.0064" y="-1" relative="1" as="geometry">
            <mxPoint as="offset" />
          </mxGeometry>
        </mxCell>
        <mxCell id="5B4_dlVFcErtrF7RwUxo-11" value="" style="endArrow=none;dashed=1;html=1;rounded=0;" parent="1" edge="1">
          <mxGeometry width="50" height="50" relative="1" as="geometry">
            <mxPoint x="40" y="355" as="sourcePoint" />
            <mxPoint x="40" y="135" as="targetPoint" />
          </mxGeometry>
        </mxCell>
        <mxCell id="5B4_dlVFcErtrF7RwUxo-15" value="" style="endArrow=classic;html=1;rounded=0;" parent="1" source="5B4_dlVFcErtrF7RwUxo-13" target="5B4_dlVFcErtrF7RwUxo-6" edge="1">
          <mxGeometry width="50" height="50" relative="1" as="geometry">
            <mxPoint x="206" y="180" as="sourcePoint" />
            <mxPoint x="366" y="179.68" as="targetPoint" />
            <Array as="points">
              <mxPoint x="470" y="180" />
            </Array>
          </mxGeometry>
        </mxCell>
        <mxCell id="5B4_dlVFcErtrF7RwUxo-16" value="New()" style="edgeLabel;html=1;align=center;verticalAlign=middle;resizable=0;points=[];" parent="5B4_dlVFcErtrF7RwUxo-15" vertex="1" connectable="0">
          <mxGeometry x="0.0064" y="-1" relative="1" as="geometry">
            <mxPoint as="offset" />
          </mxGeometry>
        </mxCell>
        <mxCell id="5B4_dlVFcErtrF7RwUxo-18" value="" style="endArrow=classic;html=1;rounded=0;" parent="1" target="5B4_dlVFcErtrF7RwUxo-7" edge="1">
          <mxGeometry width="50" height="50" relative="1" as="geometry">
            <mxPoint x="615" y="235.00000000000023" as="sourcePoint" />
            <mxPoint x="450" y="235" as="targetPoint" />
          </mxGeometry>
        </mxCell>
        <mxCell id="5B4_dlVFcErtrF7RwUxo-19" value="New()" style="edgeLabel;html=1;align=center;verticalAlign=middle;resizable=0;points=[];" parent="5B4_dlVFcErtrF7RwUxo-18" vertex="1" connectable="0">
          <mxGeometry x="0.0064" y="-1" relative="1" as="geometry">
            <mxPoint as="offset" />
          </mxGeometry>
        </mxCell>
        <mxCell id="5B4_dlVFcErtrF7RwUxo-21" value="" style="endArrow=classic;html=1;rounded=0;" parent="1" source="5B4_dlVFcErtrF7RwUxo-17" edge="1">
          <mxGeometry width="50" height="50" relative="1" as="geometry">
            <mxPoint x="630" y="265.0000000000002" as="sourcePoint" />
            <mxPoint x="830" y="265.0000000000002" as="targetPoint" />
          </mxGeometry>
        </mxCell>
        <mxCell id="5B4_dlVFcErtrF7RwUxo-22" value="New()" style="edgeLabel;html=1;align=center;verticalAlign=middle;resizable=0;points=[];" parent="5B4_dlVFcErtrF7RwUxo-21" vertex="1" connectable="0">
          <mxGeometry x="0.0064" y="-1" relative="1" as="geometry">
            <mxPoint as="offset" />
          </mxGeometry>
        </mxCell>
        <mxCell id="5B4_dlVFcErtrF7RwUxo-24" value="Im Folgenden wird main weggelassen und alles ist von MVVM ausgehend" style="text;html=1;align=center;verticalAlign=middle;resizable=0;points=[];autosize=1;strokeColor=none;fillColor=none;" parent="1" vertex="1">
          <mxGeometry x="30" y="453" width="420" height="30" as="geometry" />
        </mxCell>
        <mxCell id="uw56uA3Ibeq5_oPnyHb7-1" value="Grundaufbau beim Starten des Programms:" style="text;html=1;align=center;verticalAlign=middle;resizable=0;points=[];autosize=1;strokeColor=none;fillColor=none;" vertex="1" parent="1">
          <mxGeometry x="310" y="20" width="260" height="30" as="geometry" />
        </mxCell>
      </root>
    </mxGraphModel>
  </diagram>
</mxfile>
